<?xml version="1.0" standalone="no"?>
<!DOCTYPE svg PUBLIC "-//W3C//DTD SVG 20010904//EN"
 "http://www.w3.org/TR/2001/REC-SVG-20010904/DTD/svg10.dtd">
<svg version="1.0" xmlns="http://www.w3.org/2000/svg"
 width="1246.000000pt" height="1246.000000pt" viewBox="0 0 1246.000000 1246.000000"
 preserveAspectRatio="xMidYMid meet">
<metadata>
Created by potrace 1.14, written by Peter Selinger 2001-2017
</metadata>
<g transform="translate(0.000000,1246.000000) scale(0.100000,-0.100000)"
fill="#000000" stroke="none">
<path d="M5 6275 c0 -2070 2 -3766 5 -3769 6 -5 155 140 1080 1054 322 318
676 667 786 776 111 110 460 454 775 765 316 312 710 701 877 865 l303 299
-34 35 c-29 30 -690 684 -1400 1384 -111 109 -465 458 -785 775 -321 317 -670
661 -775 764 -106 104 -325 320 -487 480 -163 161 -307 302 -320 314 l-25 22
0 -3764z"/>
<path d="M12123 9716 c-180 -178 -422 -417 -538 -531 -115 -114 -470 -464
-789 -778 -318 -315 -669 -661 -780 -771 -110 -109 -462 -455 -780 -770 -318
-314 -585 -577 -594 -585 -12 -13 21 -49 266 -290 154 -152 542 -535 862 -851
320 -316 671 -662 779 -769 108 -106 462 -456 786 -776 1018 -1006 1109 -1094
1115 -1089 5 5 8 7534 3 7534 -1 0 -150 -146 -330 -324z"/>
<path d="M5464 7057 c-417 -420 -764 -770 -771 -778 -10 -12 120 -147 763
-794 l775 -779 779 779 780 780 -777 777 c-428 428 -781 778 -784 778 -3 0
-347 -343 -765 -763z"/>
<path d="M2531 4135 l-1713 -1715 1558 0 1559 0 942 942 943 943 -357 353
c-197 194 -548 542 -779 773 -232 230 -426 419 -430 419 -5 -1 -780 -772
-1723 -1715z"/>
<path d="M8025 5678 c-93 -94 -443 -441 -777 -772 l-607 -602 942 -942 942
-942 1560 0 1560 0 -1715 1715 c-943 943 -1719 1715 -1725 1714 -5 0 -86 -77
-180 -171z"/>
<path d="M6116 3914 c-548 -87 -818 -711 -505 -1171 72 -107 191 -204 322
-262 101 -45 160 -56 307 -56 126 1 142 3 228 33 103 35 206 97 283 169 93 87
194 266 214 378 35 194 13 361 -65 510 -153 291 -465 449 -784 399z"/>
</g>
</svg>
